# xmcd
#
# Track frame offsets: 
#        150
#        32247
#        67995
#        101007
#        153665
#        195675
#        225659
#
# Disc length: 3843 seconds
#
# Revision: 2
# Processed by: cddbd v1.5.2PL0 Copyright (c) Steve Scherf et al.
# Submitted via: ExactAudioCopyFreeDBPlugin 1.0
#
DISCID=580f0107
DTITLE=Slaughter, Karin - Zerstört
DYEAR=2009
DGENRE=Hörbuch
TTITLE0=08 Zerstört
TTITLE1=09 Zerstört
TTITLE2=10 Zerstört
TTITLE3=11 Zerstört
TTITLE4=12 Zerstört
TTITLE5=13 Zerstört
TTITLE6=14 Zerstört
EXTD=YEAR: 2009
EXTT0=
EXTT1=
EXTT2=
EXTT3=
EXTT4=
EXTT5=
EXTT6=
PLAYORDER=
